<?xml version="1.0" encoding="UTF-8"?>
<svg width="16" height="16" fill="none" version="1.1" viewBox="0 0 16 16" xmlns="http://www.w3.org/2000/svg">
 <path d="m4.0781 1.207-2.8711 10.715 10.715 2.8711 0.70508-2.6348-1.75-0.17773-0.26562 0.77148c-0.05376 0.15622-0.21659 0.24999-0.37891 0.21875l-2.1484-0.41406c-0.00775-0.0015-0.015668-0.0038-0.023437-0.0059-0.1587-0.04252-0.26504-0.19807-0.24609-0.36133l0.087891-0.75586-1.5312-0.41016-0.30273 0.69922c-0.065294 0.1509-0.2341 0.23191-0.39258 0.18945-0.00788-0.0021-0.015598-0.0051-0.023437-0.0078l-2.0684-0.71482c-0.15624-0.05412-0.2503-0.21674-0.21875-0.37891l0.15625-0.80078-1.6055-0.7207 0.11719-0.42773c0.01023 0.00274 0.046671-0.10334 0.056641-0.099609l1.9297 0.7207c0.15342 0.05741 0.24219 0.21611 0.21094 0.37695l-0.1543 0.79297 1.502 0.51953 0.29297-0.67773c0.065294-0.1509 0.23382-0.23199 0.39258-0.18945l2.0898 0.55859c0.15881 0.04255 0.265 0.198 0.24609 0.36133l-0.085937 0.73438 1.5605 0.30078 0.26367-0.76367c0.05334-0.15487 0.20952-0.24769 0.37109-0.2207l2.0293 0.33789c0.01066 0.0018 0 0.11719 0 0.11719l-0.11133 0.42773 2.166-8.0801zm6.873 3.2773 2.1445 0.57422-0.57422 2.1426-2.1445-0.57422z" fill="#e0e0e0" stroke-width=".27733"/>
 <g stroke-width=".056636">
  <path d="m6.2868 7.9446c-0.17666 0.65931-0.85397 1.0503-1.5131 0.87366-0.65877-0.17652-1.05-0.85379-0.87336-1.5131 0.17655-0.65888 0.85395-1.0495 1.5127-0.873 0.65909 0.1766 1.0503 0.85356 0.87371 1.5124" display="none" fill="#fff"/>
  <path d="m5.9807 7.9385c-0.11718 0.43732-0.56659 0.69678-1.0042 0.57952-0.43743-0.11721-0.69711-0.56668-0.57993-1.004s0.5669-0.69705 1.0043-0.57985c0.43765 0.11727 0.69702 0.567 0.57985 1.0043" display="none" fill="#414042"/>
  <path d="m7.5515 9.6789c-0.21215-0.056845-0.3422-0.25927-0.29055-0.45199l0.29435-1.0985c0.051597-0.19256 0.26547-0.30301 0.47762-0.24616s0.34253 0.25953 0.29094 0.4521l-0.29435 1.0985c-0.051641 0.19273-0.26586 0.3029-0.47801 0.24606" display="none" fill="#fff"/>
  <path d="m9.5141 8.8094c-0.17666 0.65931 0.21443 1.3365 0.87363 1.5132 0.65871 0.1765 1.3361-0.21442 1.5128-0.87374 0.17654-0.65888-0.21473-1.3359-0.87344-1.5124-0.6592-0.17663-1.3364 0.21405-1.513 0.87292" display="none" fill="#fff"/>
  <path d="m9.7823 8.9571c-0.11718 0.43732 0.14218 0.8867 0.5795 1.0039 0.43776 0.1173 0.88706-0.1422 1.0042-0.57952 0.11718-0.43732-0.14209-0.88703-0.57985-1.0043-0.43732-0.11718-0.88671 0.14265-1.0039 0.57996" display="none" fill="#414042"/>
 </g>
</svg>
